<svg data-v-205a1e56="" id="outline" height="120" viewBox="0 0 512 512" width="100%" xmlns="http://www.w3.org/2000/svg">
<path fill="#3a6dfa" data-v-205a1e56="" d="m152 88h80v16h-80z"></path>
<path fill="#3a6dfa" data-v-205a1e56="" d="m112 88h16v16h-16z"></path>
<path fill="#3a6dfa" data-v-205a1e56="" d="m144 136h88v16h-88z"></path>
<path fill="#3a6dfa" data-v-205a1e56="" d="m72 136h48v16h-48z"></path>
<path fill="#3a6dfa" data-v-205a1e56="" d="m208 184h120v16h-120z"></path>
<path fill="#3a6dfa" data-v-205a1e56="" d="m120 184h64v16h-64z"></path>
<path fill="#3a6dfa" data-v-205a1e56="" d="m72 184h32v16h-32z"></path>
<path fill="#3a6dfa" data-v-205a1e56="" d="m184 240h112v16h-112z"></path>
<path fill="#3a6dfa" data-v-205a1e56="" d="m72 240h88v16h-88z"></path>
<path fill="#3a6dfa" data-v-205a1e56="" d="m160 296h96v16h-96z"></path>
<path fill="#3a6dfa" data-v-205a1e56="" d="m72 296h64v16h-64z"></path>
<path fill="#3a6dfa" data-v-205a1e56="" d="m72 352h40v16h-40z"></path>
<path fill="#3a6dfa" data-v-205a1e56="" d="m491.96924 105.05371-56-32a7.99969 7.99969 0 0 0 -10.99219 3.11529l-144 264 .00855.00488a7.98314 7.98314 0 0 0 -.9856 3.82612v64h-208v16h216a7.99971 7.99971 0 0 0 4.6499-1.49023l56-40a7.97571 7.97571 0 0 0 2.36011-2.68555l.01294.00683 144-264a8.00061 8.00061 0 0 0 -3.05371-10.77734zm-151.08472 259.95166-13.32352-7.61377 92.87866-171.926 14.009 8.00512zm-42.10547-24.06055 93.56421-171.53418 14.2002 8.11426-92.87854 171.92627zm101.22754-185.584 9.44556-17.31665 42.10547 24.0603-9.44532 17.31665zm-104.00659 245.09328v-42.66894l33.187 18.96384zm163.22119-252.39941-42.10571-24.06031 18.00024-33.00024 42.10547 24.06055z"></path>
<path fill="#3a6dfa" data-v-205a1e56="" d="m136 352h64v16h-64z"></path>
<path fill="#3a6dfa" data-v-205a1e56="" d="m224 352h32v16h-32z"></path>
<path fill="#3a6dfa" data-v-205a1e56="" d="m384 456a24.0275 24.0275 0 0 1 -24 24h-304a24.0275 24.0275 0 0 1 -24-24v-400a24.0275 24.0275 0 0 1 24-24h202.74512a24.20388 24.20388 0 0 1 5.25488.58081v79.41919a40.04552 40.04552 0 0 0 40 40h24v-16h-24a24.02718 24.02718 0 0 1 -24-24v-68.68555l82.51562 82.51465 11.31348-11.31445-86.79931-86.79785a39.734 39.734 0 0 0 -28.28467-11.7168h-202.74512a40.04552 40.04552 0 0 0 -40 40v400a40.04552 40.04552 0 0 0 40 40h304a40.04552 40.04552 0 0 0 40-40v-96h-16z"></path>
</svg>