<?xml version="1.0" encoding="UTF-8"?>
<svg width="464px" height="308px" viewBox="0 0 464 308" version="1.1" xmlns="http://www.w3.org/2000/svg" xmlns:xlink="http://www.w3.org/1999/xlink">
    <!-- Generator: Sketch 49.2 (51160) - http://www.bohemiancoding.com/sketch -->
    <title>zomato-gold</title>
    <desc>Created with Sketch.</desc>
    <defs>
        <linearGradient x1="-10.4752441%" y1="19.6915673%" x2="190.108501%" y2="119.093697%" id="linearGradient-1">
            <stop stop-color="#A2742A" offset="0%"></stop>
            <stop stop-color="#D5C05B" offset="50.71%"></stop>
            <stop stop-color="#826126" offset="100%"></stop>
        </linearGradient>
        <linearGradient x1="-124.053039%" y1="-39.2171864%" x2="197.528637%" y2="130.04351%" id="linearGradient-2">
            <stop stop-color="#A2742A" offset="0%"></stop>
            <stop stop-color="#D5C05B" offset="50.71%"></stop>
            <stop stop-color="#826126" offset="100%"></stop>
        </linearGradient>
        <linearGradient x1="-242.379238%" y1="-25.1581735%" x2="173.258822%" y2="81.4212329%" id="linearGradient-3">
            <stop stop-color="#A2742A" offset="0%"></stop>
            <stop stop-color="#D5C05B" offset="50.71%"></stop>
            <stop stop-color="#826126" offset="100%"></stop>
        </linearGradient>
        <linearGradient x1="-204.073995%" y1="-37.5089842%" x2="101.975706%" y2="67.8662302%" id="linearGradient-4">
            <stop stop-color="#A2742A" offset="0%"></stop>
            <stop stop-color="#D5C05B" offset="50.71%"></stop>
            <stop stop-color="#826126" offset="100%"></stop>
        </linearGradient>
        <linearGradient x1="-71.4692308%" y1="-22.801847%" x2="961.78787%" y2="593.062533%" id="linearGradient-5">
            <stop stop-color="#A2742A" offset="0%"></stop>
            <stop stop-color="#D5C05B" offset="50.71%"></stop>
            <stop stop-color="#826126" offset="100%"></stop>
        </linearGradient>
        <linearGradient x1="-142.552976%" y1="-58.4374372%" x2="896.936905%" y2="528.073116%" id="linearGradient-6">
            <stop stop-color="#A2742A" offset="0%"></stop>
            <stop stop-color="#D5C05B" offset="50.71%"></stop>
            <stop stop-color="#826126" offset="100%"></stop>
        </linearGradient>
        <linearGradient x1="-662.341589%" y1="-164.021444%" x2="969.243458%" y2="331.430786%" id="linearGradient-7">
            <stop stop-color="#A2742A" offset="0%"></stop>
            <stop stop-color="#D5C05B" offset="50.71%"></stop>
            <stop stop-color="#826126" offset="100%"></stop>
        </linearGradient>
        <linearGradient x1="-466.164881%" y1="-241.016583%" x2="573.252381%" y2="345.453015%" id="linearGradient-8">
            <stop stop-color="#A2742A" offset="0%"></stop>
            <stop stop-color="#D5C05B" offset="50.71%"></stop>
            <stop stop-color="#826126" offset="100%"></stop>
        </linearGradient>
        <linearGradient x1="-318.917935%" y1="-165.02855%" x2="662.771182%" y2="407.975751%" id="linearGradient-9">
            <stop stop-color="#A2742A" offset="0%"></stop>
            <stop stop-color="#D5C05B" offset="50.71%"></stop>
            <stop stop-color="#826126" offset="100%"></stop>
        </linearGradient>
        <linearGradient x1="-120.596931%" y1="-117.158639%" x2="487.74958%" y2="493.859948%" id="linearGradient-10">
            <stop stop-color="#A2742A" offset="0%"></stop>
            <stop stop-color="#D5C05B" offset="50.71%"></stop>
            <stop stop-color="#826126" offset="100%"></stop>
        </linearGradient>
    </defs>
    <g id="zomato-gold" stroke="none" stroke-width="1" fill="none" fill-rule="evenodd">
        <g id="GOLDLOGO" fill-rule="nonzero">
            <g id="Group">
                <g id="Shape">
                    <path d="M4.2,282.1 C13.3,289.9 15.8,291.2 23.9,291.2 C62.2,291.2 94.3,249.6 113.4,179.2 C104.8,188.3 85.7,201.4 76,205.3 C63.5,203.1 53.8,187.6 53.8,170.1 C53.8,127.1 104.8,72.3 144.2,72.3 C156.9,72.3 163,77 165.8,90 C163.9,88.9 160.8,88.3 158,88.3 C131.4,88.3 75.9,156.5 75.9,190.6 C75.9,193.1 76.5,193.4 77,193.4 C83.4,193.4 102,177.6 115.8,162.1 C131.6,144.4 145.5,120.8 153.2,100.3 C163.2,100.9 171.8,104.2 174.6,107 C162.1,135.8 155.2,154.4 149.6,169.4 C129.9,222.6 116.3,256.2 89.7,285.5 C76.9,299.6 57,307.1 43.7,307.1 C25.7,307.1 5.7,298.2 0.5,288 C0.5,285.7 2.2,283.8 4.2,282.1 Z" fill="url(#linearGradient-1)"></path>
                    <path d="M177.4,176.1 C177.4,147.1 196.1,112.1 221.6,93.3 C231.4,86 241.1,82.2 249.6,82.2 C255.3,85.2 261.3,92 266.7,101.5 C268.3,101.5 270,101.2 271.6,101.2 C281.4,101.2 286,109.3 286,126.7 C286,172 254.8,210.8 211.4,220.1 C190.7,217.9 177.4,200.5 177.4,176.1 Z M203.2,189.6 C203.2,198.3 206.7,207.8 210.3,208.9 C242.6,201.8 266.2,167.1 266.2,124.8 C266.2,115.6 265.1,110.4 262.7,106.6 C247,111.2 234.2,122.9 225.2,134.6 C212.7,151.1 203.2,175.3 203.2,189.6 Z" fill="url(#linearGradient-2)"></path>
                    <path d="M311.3,116.3 C325.9,60.5 339.8,26.4 354.5,4.6 C362.3,5.3 379.9,13.4 382.9,17.2 C360.7,49.2 345.7,80 334,125.6 C324.1,164.4 319.9,196.4 321.8,216.6 C322.3,222.1 322.4,222.4 322.7,223.6 C318.3,223.5 314.5,222 313.4,219.9 C312.5,218.3 308.5,214.8 306.2,213.5 C303.1,211.8 300.1,202.9 299.1,192.6 C297.8,178.5 302.2,151.2 311.3,116.3 Z" fill="url(#linearGradient-3)"></path>
                    <path d="M438.3,104.7 C437.1,77.7 435.7,58.5 413.8,17.5 C416.5,11.3 429.9,1.8 438.6,0.9 C456.4,23 465.4,68.9 463,103.8 C459.4,156.7 417.4,219 382.8,222.4 C359.7,218.3 347.9,204.7 349.4,183.2 C351.8,148.3 389.5,96.7 415.7,92.1 C422.4,92.7 431.9,97.9 438.3,104.7 Z M438,116.7 C438.4,110.9 438.4,110.6 438.3,109.3 C413.3,118 373,170.7 371.2,197 C370.6,205.6 374.1,210.4 381.6,212.2 C405.9,205.5 435.3,156.2 438,116.7 Z" fill="url(#linearGradient-4)"></path>
                </g>
                <g transform="translate(92.000000, 2.000000)" id="Shape">
                    <path d="M33,14.9 L11.1,40.6 C15.8,40.6 24.8,40.6 30.1,40.4 C29.4,42.7 29,44.5 28.5,47.2 C23.8,47 20.1,46.8 14.4,46.8 C9,46.8 4.8,47 0.1,47.2 L-5.68434189e-14,42.8 L22.5,15.7 C15.6,15.7 11.1,15.8 5.2,15.9 C5.7,13.8 6.1,11.8 6.4,9.3 C11.6,9.5 13.4,9.5 19.6,9.5 C25.6,9.5 28.8,9.4 33.8,9.3 L33,14.9 Z" fill="url(#linearGradient-5)"></path>
                    <path d="M48.2,48.2 C38.4,48.2 34.1,41.2 34.1,32.1 C34.1,19.4 42.6,8.4 53.6,8.4 C63.4,8.4 67.7,15.4 67.7,24.5 C67.7,37.2 59.2,48.2 48.2,48.2 Z M49.2,41.8 C55.7,41.8 60.3,34.5 60.3,25.2 C60.3,18.3 57.8,14.9 52.5,14.9 C46,14.9 41.4,22.2 41.4,31.5 C41.4,38.4 43.9,41.8 49.2,41.8 Z" fill="url(#linearGradient-6)"></path>
                    <path d="M186,44.6 C184.1,45.9 180.1,47.7 176.1,47.7 C170.7,47.7 169.4,44.3 170.4,37.3 L173.6,15.6 L169.3,15.6 L170.7,9.4 L174.8,9.4 L176,3.8 L183,0.6 L181.6,9.4 L190.7,9.4 L189.6,15.6 L180.7,15.6 L177.7,36.2 C177.1,40 177.5,41.4 180.2,41.4 C182.2,41.4 185.4,40.1 187.1,39.1 L186,44.6 Z" fill="url(#linearGradient-7)"></path>
                    <path d="M205.5,48.2 C195.7,48.2 191.4,41.2 191.4,32.1 C191.4,19.4 199.9,8.4 210.9,8.4 C220.7,8.4 225,15.4 225,24.5 C225,37.2 216.5,48.2 205.5,48.2 Z M206.5,41.8 C213,41.8 217.6,34.5 217.6,25.2 C217.6,18.3 215.1,14.9 209.9,14.9 C203.4,14.9 198.8,22.2 198.8,31.5 C198.7,38.4 201.2,41.8 206.5,41.8 Z" fill="url(#linearGradient-8)"></path>
                    <path d="M129.5,38.7 C129.2,34.9 130.4,31.7 132.6,29.2 C135.6,25.9 140.1,23.9 145.9,23.5 C151.1,23.1 154,23.7 157.9,24.5 L158.1,23.6 C158.3,22.6 158.4,21.2 158.4,20.2 C158,15.7 154.6,13.3 147.6,13.8 C143.5,14.1 139.9,15.2 136.5,16.7 L135,11.3 C138.9,9.5 143.1,8.3 148.3,7.9 C158.5,7.1 164.5,11.2 165,18.6 C165.1,20.3 164.9,22.2 164.5,24.1 L161.9,47.4 L154.5,47.3 L155.6,40.8 C152.3,45 148.8,48 142.7,48.5 C136.1,48.9 130,45.4 129.5,38.7 Z M156.5,31.3 L157,28.8 C153.7,28.2 151.3,27.8 146.8,28.1 C143,28.4 140.2,29.7 138.4,31.7 C137,33.3 136.4,35.2 136.5,37.3 C136.8,41.1 140,43.3 144.8,43 C152.7,42.5 155.2,37.8 156.5,31.3 Z" fill="url(#linearGradient-9)"></path>
                    <path d="M119.9,8.1 C114.2,8.1 109,12.3 104.3,20 C105.3,13.5 104,8.1 97.1,8.1 C91.4,8.1 86.2,12.3 81.5,20 C82.4,14.8 81.9,9.8 81.6,8.5 C79.3,8.9 77.4,9.1 74.6,9.2 C74.8,13.1 74.5,18.2 73.8,22.9 L72.3,32.6 C71.6,37.4 70.8,42.9 70,46.3 L77.7,46.3 C77.8,44.2 78.2,40.9 78.7,38 L80.1,29.4 C82.1,23.7 87.9,14.6 94,14.6 C97.7,14.6 97.3,17.9 95.9,27.7 L95.2,32.6 C94.5,37.4 93.7,42.9 92.9,46.3 L100.6,46.3 C100.7,44.2 101.2,40.9 101.6,38 L103,29.4 C105,23.7 110.8,14.6 116.9,14.6 C120.5,14.6 120.4,17.7 119.6,22.9 L118.4,30.4 L118,33.7 C117.3,38.5 116.5,42.8 115.7,46.3 L123.4,46.3 C123.5,44.2 124,41.2 124.4,38.3 L125.2,32.9 L127.1,21.4 C128.1,13.4 126.9,8.1 119.9,8.1 Z" fill="url(#linearGradient-10)"></path>
                </g>
            </g>
        </g>
    </g>
</svg>